<?xml version="1.0" encoding="UTF-8"?>
<svg width="50px" height="50px" viewBox="0 0 50 50" version="1.1" xmlns="http://www.w3.org/2000/svg" xmlns:xlink="http://www.w3.org/1999/xlink">
    <!-- Generator: Sketch 52.5 (67469) - http://www.bohemiancoding.com/sketch -->
    <title>Group 5</title>
    <desc>Created with Sketch.</desc>
    <g id="Page-1" stroke="none" stroke-width="1" fill="none" fill-rule="evenodd">
        <g id="ACY_Contact_Us" transform="translate(-997.000000, -806.000000)" fill-rule="nonzero">
            <g id="Group-5" transform="translate(997.000000, 806.000000)">
                <circle id="Oval-Copy" fill="#013B81" cx="25" cy="25" r="25"></circle>
                <g id="noun_Email_1569995" transform="translate(13.636364, 17.424242)" fill="#FFFFFF">
                    <g id="Group" transform="translate(0.000000, 0.362398)">
                        <path d="M1.66297118,0.205784091 C1.44513027,0.205784091 1.23834534,0.251543514 1.04801829,0.327042406 L10.6967156,8.53796813 C11.1190161,8.89769651 11.5899363,8.89794595 12.0132345,8.53796813 L21.6705931,0.318367239 C21.4830183,0.245390521 21.2783038,0.205784091 21.0643016,0.205784091 L1.66297118,0.205784091 Z M0.0173226164,1.62623864 C0.00604767184,1.70473088 0,1.78704795 0,1.86875527 L0,12.9552353 C0,13.8764936 0.741701774,14.6182065 1.66297118,14.6182065 L21.0643016,14.6182065 C21.985571,14.6182065 22.7272727,13.8764936 22.7272727,12.9552353 L22.7272727,1.86875527 C22.7272727,1.78704795 22.7212306,1.70473088 22.7099501,1.62623864 L13.095898,9.80251912 C12.0992794,10.6500247 10.6106153,10.6513828 9.61405211,9.80251912 L0.0173226164,1.62623864 Z" id="Shape"></path>
                    </g>
                </g>
            </g>
        </g>
    </g>
</svg>